Genre:Crime | Sci-Fi | Thriller
Language:English
IMDb:http://www.imdb.com/title/tt1637688/
Source:1080p.Bluray.x264.DTS-HDChina Thanks!
Encoder:Tony

Format : MPEG-4
Format profile : Base Media
Codec ID : isom
File size : 2.59 GiB
Duration : 1h 49mn
Overall bit rate mode : Variable
Overall bit rate : 3 397 Kbps

Video
ID : 1
Format : AVC
Format/Info : Advanced Video Codec
Format profile : High@L5.1
Format settings, CABAC : Yes
Format settings, ReFrames : 8 frames
Codec ID : avc1
Codec ID/Info : Advanced Video Coding
Duration : 1h 49mn
Bit rate : 3 000 Kbps
Maximum bit rate : 24.5 Mbps
Width : 1 280 pixels
Height : 544 pixels
Display aspect ratio : 2.35:1
Frame rate mode : Constant
Frame rate : 23.976 fps
Color space : YUV
Chroma subsampling : 4:2:0
Bit depth : 8 bits
Scan type : Progressive
Bits/(Pixel*Frame) : 0.180
Stream size : 2.25 GiB (87%)
Writing library : x264

Audio
ID : 2
Format : AAC
Format/Info : Advanced Audio Codec
Format profile : LC
Codec ID : 40
Duration : 1h 49mn
Bit rate mode : Variable
Bit rate : 443 Kbps
Maximum bit rate : 529 Kbps
Channel(s) : 6 channels
Channel positions : Front: L C R, Side: L R, LFE
Sampling rate : 48.0 KHz
Compression mode : Lossy
Stream size : 347 MiB (13%)


Plot:
In a future where people stop aging at 25, but are engineered to live only one more year, having the means to buy your way out of the situation is a shot at immortal youth. Here, Will Salas finds himself accused of murder and on the run with a hostage - a connection that becomes an important part of the way against the system
